<svg version="1.0" xmlns="http://www.w3.org/2000/svg" width="2666.667" height="2666.667" viewBox="0 0 2000 2000"><path d="M648.6 205.7c-8.5 25.8-68.2 204.5-132.5 397.3-129 386.4-119.5 357.9-125.1 374.5-2.2 6.6-4.2 12.7-4.5 13.5-.2.8-22 66.3-48.5 145.5-61.4 184-61.4 183.8-61.6 185-.2.9-7.9 23.8-20.5 61-2.2 6.6-5.8 17.4-7.9 24-3.7 11.5-7.7 23.4-15.6 46.5-1.9 5.8-3.7 11.2-3.9 12-.2.8-28.5 85.6-62.9 188.5-34.3 102.8-62.3 187.1-62.2 187.3.2.1 403.5.1 896.3 0l896.1-.3-7.4-22.5c-4.1-12.4-7.8-23.4-8.3-24.5-.5-1.1-20.1-59.8-43.5-130.5-23.5-70.7-43.3-130.1-44.1-132-.7-1.9-10.9-32.3-22.5-67.5s-21.5-64.9-22-66c-.5-1.1-4.1-11.9-8-24-3.9-12.1-7.4-22.7-7.7-23.5-.3-.8-76-227.6-168.3-504-92.3-276.4-168-503.2-168.3-504-.3-.8-14.1-42.3-30.7-92.3l-30.2-90.7H664.2l-15.6 46.7zm371.2 471.8c5 15.4 12.6 38.8 16.8 52 4.3 13.2 7.9 24.7 8 25.5.2.8.7 2.3 1.2 3.5.5 1.1 2.1 5.6 3.5 10 3.3 10.8 17.4 54.6 19.7 61.5 1 3 5.5 17 10 31s9 28 10 31c1.1 3 5.8 17.6 10.5 32.5 4.8 14.8 10.9 34 13.7 42.5 2.8 8.5 7 21.8 9.5 29.5 2.5 7.7 5.6 17.1 6.8 21 1.3 3.8 6.4 19.7 11.4 35.2l9.1 28.1 187.3-.3c102.9-.2 212.8-.4 244.1-.5 31.2-.1 57 0 57.2.2.1.2-9.7 7.6-21.8 16.3-12.2 8.8-29 20.9-37.3 27-8.4 6-24 17.3-34.6 25-10.7 7.6-19.9 14.4-20.6 15-.6.5-4.6 3.5-8.9 6.5-9.6 6.8-71.5 51.6-72.9 52.7-.5.5-3.2 2.4-6 4.3-2.7 1.9-9.9 7.1-16 11.5-10.6 7.9-33 24.1-40.6 29.4-2 1.4-13.9 10-26.4 19.1-12.5 9.1-27.1 19.6-32.4 23.5-5.4 3.8-15.9 11.5-23.5 17s-17.7 12.8-22.5 16.2c-4.7 3.4-9 6.5-9.6 7-.5.5-5.9 4.4-11.8 8.7-8.2 5.9-10.7 8.2-10.2 9.5.4.9 2.6 7.7 5 15.1 6.7 20.8 21.2 65.2 25.5 78 2.1 6.3 8.6 26.3 14.5 44.5 5.9 18.1 11 33.9 11.5 35 .5 1.1 5.4 16.2 11 33.5s11.9 36.7 14 43c2.1 6.3 10.6 32.4 19 58 8.3 25.6 15.8 48.3 16.5 50.5.8 2.2 7.8 23.6 15.6 47.5s15.2 46.6 16.4 50.5c2.4 7.3 2.5 8.4.3 6.6-3.7-3.2-19-14.1-19.8-14.1-.4 0-1-.4-1.2-.8-.2-.5-9.5-7.5-20.8-15.7s-21.7-15.8-23.2-17c-1.4-1.1-5.5-4.1-9-6.6s-13.9-10.2-23.3-17c-9.3-6.8-18-13.1-19.2-13.9-1.2-.8-16.9-12.3-34.9-25.5-17.9-13.2-35.5-26-38.9-28.5-12.4-8.9-38.8-28.1-59-43-7.1-5.2-13.9-10.2-15.1-11-1.2-.8-17.5-12.6-36.1-26.2s-47-34.4-63.2-46.2c-17-12.4-29.9-21.2-30.6-20.8-.6.4-11.6 8.3-24.4 17.7-12.8 9.3-25.2 18.3-27.5 20-2.4 1.6-11.6 8.4-20.5 15s-17.2 12.7-18.4 13.5c-1.3.8-9.6 6.9-18.6 13.5-8.9 6.6-17.2 12.7-18.4 13.5-2.5 1.7-29.6 21.5-31.2 22.7-.5.5-5 3.8-10 7.3-4.9 3.5-10.8 7.8-13.1 9.5-2.2 1.6-5.3 3.9-6.8 5s-5.6 4.1-8.9 6.6c-3.4 2.5-21.9 16-41.2 30-19.2 13.9-35.4 25.7-36 26.2-2.7 2.1-16.3 12-38 27.7-13.2 9.6-24.4 17.8-25 18.3-1 .8-19.2 14.1-35.9 26.2-5.3 3.8-12 8.7-14.8 10.8-2.8 2.1-5.2 3.6-5.4 3.4-.2-.2.9-4.1 2.5-8.8 1.6-4.6 8.8-26.6 16.1-48.9 7.2-22.3 15.3-47 18-55 2.6-8 9.1-28 14.5-44.5s12.1-37.2 15-46c2.9-8.8 11.3-34.2 18.5-56.5 7.3-22.3 15.4-47 18-55 2.6-8 10.5-32.1 17.5-53.5 7-21.5 17-51.8 22.1-67.5l9.4-28.5-2.3-2c-1.3-1.1-11.8-8.8-23.2-17-11.5-8.3-23.4-16.8-26.4-19.1-3.1-2.2-19.5-14.1-36.6-26.5-28.1-20.2-54.1-39.1-60.4-43.7-1.3-.9-6.9-5-12.5-8.9-5.6-4-10.5-7.6-11.1-8.1-.5-.4-21.5-15.6-46.5-33.7-25-18-48.4-35-52-37.6-3.6-2.7-7.8-5.8-9.5-6.9-3.5-2.5-24.9-18-56-40.5-12-8.8-22.9-16.7-24.1-17.5-7.8-5.2-35.3-25.5-35-25.8.2-.2 24.9-.3 54.8-.2 29.8 0 139.7.3 244 .4l189.8.4 9-28.2c5-15.4 9.5-29.2 10-30.6.5-1.4 4.6-14 9.1-28s11.2-35 15-46.5c3.7-11.6 10.6-33.2 15.4-48 4.8-14.9 10-30.8 11.5-35.5 1.5-4.7 6.5-20 11-34s8.8-27.3 9.5-29.5c.8-2.2 5.5-16.8 10.5-32.5s12-37.3 15.5-48c3.5-10.7 10.2-31.7 15-46.5 4.8-14.9 10.2-31.5 11.9-37 1.8-5.5 4.1-12.7 5.1-16l1.8-6 5.7 17.5c3.2 9.6 9.8 30.1 14.8 45.5z"/></svg>