<?xml version="1.0" encoding="UTF-8"?>
<svg width="544px" height="250px" viewBox="0 0 544 250" version="1.1" xmlns="http://www.w3.org/2000/svg" xmlns:xlink="http://www.w3.org/1999/xlink">
    <!-- Generator: Sketch 52.1 (67048) - http://www.bohemiancoding.com/sketch -->
    <title>Auth0-Logo-Light-BG</title>
    <desc>Created with Sketch.</desc>
    <g id="Page-2" stroke="none" stroke-width="1" fill="none" fill-rule="evenodd">
        <g id="Auth0-Logo-Light-BG">
            <path d="M0.5,249.5 L543.5,249.5 L543.5,3 C543.5,1.61928813 542.380712,0.5 541,0.5 L3,0.5 C1.61928813,0.5 0.5,1.61928813 0.5,3 L0.5,249.5 Z" id="BG" stroke="#E3E5E7" fill="#F5F7F9"></path>
            <g id="Untitled" transform="translate(138.000000, 77.000000)">
                <path d="M251.116968,25.2057143 C246.448513,25.2057143 242.500149,27.3805714 239.698383,31.4942857 C236.913377,35.5834286 235.441409,41.2914286 235.441409,48 C235.441409,54.7085714 236.913377,60.4165714 239.698383,64.5051429 C242.500149,68.6194286 246.448513,70.7937143 251.116968,70.7937143 C255.785422,70.7937143 259.733786,68.6194286 262.535552,64.5051429 C265.319981,60.4165714 266.791948,54.7085714 266.791948,48 C266.791948,41.2914286 265.319981,35.5834286 262.535552,31.4942857 C259.733786,27.3805714 255.785422,25.2057143 251.116968,25.2057143 L251.116968,25.2057143 L251.116968,25.2057143 Z M251.116968,65.1457143 C248.885032,65.1457143 247.121792,63.8971429 245.724955,61.328 C244.038,58.2245714 243.108701,53.4914286 243.108701,48 C243.108701,42.5085714 244.038,37.7748571 245.724955,34.672 C247.121792,32.1028571 248.885032,30.8537143 251.116968,30.8537143 C253.348325,30.8537143 255.112143,32.1028571 256.508981,34.672 C258.195935,37.7748571 259.124656,42.508 259.124656,48 C259.124656,53.492 258.195935,58.2257143 256.508981,61.328 C255.112143,63.8971429 253.348325,65.1457143 251.116968,65.1457143 L251.116968,65.1457143 L251.116968,65.1457143 Z M149.941883,41.8125714 L149.941883,61.4194286 C149.941883,66.5885714 154.19539,70.7937143 159.423273,70.7937143 C163.983078,70.7937143 167.428071,68.5571429 168.69661,67.5948571 C168.767117,67.5411429 168.859584,67.5251429 168.944539,67.552 C169.029494,67.5788571 169.095377,67.6451429 169.121383,67.7297143 L169.886552,70.2057143 L175.536318,70.2057143 L175.536318,41.8125714 L168.276461,41.8125714 L168.276461,63.0434286 C168.276461,63.1434286 168.219247,63.2354286 168.129669,63.2817143 C166.764617,63.9777143 164.0715,65.1462857 161.37376,65.1462857 C159.074208,65.1462857 157.20174,63.296 157.20174,61.0211429 L157.20174,41.8125714 L149.941883,41.8125714 L149.941883,41.8125714 L149.941883,41.8125714 Z M222.636968,70.2051429 L229.897403,70.2051429 L229.897403,50.5982857 C229.897403,45.4291429 225.643896,41.2234286 220.416013,41.2234286 C216.56763,41.2234286 213.48037,42.8594286 211.982974,43.8342857 C211.899175,43.8885714 211.792838,43.8931429 211.705571,43.8462857 C211.618305,43.7994286 211.562825,43.7091429 211.562825,43.6102857 L211.562825,25.7948571 L204.302968,25.7948571 L204.302968,70.2051429 L211.562825,70.2051429 L211.562825,48.9737143 C211.562825,48.8737143 211.620039,48.7817143 211.710195,48.736 C213.074669,48.0394286 215.768364,46.8714286 218.465526,46.8714286 C219.57976,46.8714286 220.627532,47.3005714 221.41524,48.0794286 C222.202948,48.8582857 222.63639,49.8948571 222.63639,50.996 L222.63639,70.2051429 L222.636968,70.2051429 L222.636968,70.2051429 Z M180.769403,47.46 L185.188195,47.46 C185.337877,47.46 185.45924,47.58 185.45924,47.728 L185.45924,63.3474286 C185.45924,67.4531429 188.837773,70.7931429 192.990143,70.7931429 C194.49563,70.7931429 195.98089,70.5782857 197.409513,70.1542857 L197.409513,65.0262857 C196.576149,65.0988571 195.617955,65.1457143 194.94063,65.1457143 C193.715435,65.1457143 192.719097,64.16 192.719097,62.9491429 L192.719097,47.7274286 C192.719097,47.5794286 192.840461,47.4594286 192.990143,47.4594286 L197.409513,47.4594286 L197.409513,41.812 L192.990143,41.812 C192.840461,41.812 192.719097,41.692 192.719097,41.544 L192.719097,32.1685714 L185.45924,32.1685714 L185.45924,41.544 C185.45924,41.692 185.337877,41.812 185.188195,41.812 L180.769403,41.812 L180.769403,47.46 L180.769403,47.46 L180.769403,47.46 Z M138.332006,70.2051429 L145.884292,70.2051429 L134.398669,30.6 C133.478039,27.424 130.501162,25.2057143 127.159617,25.2057143 C123.818071,25.2057143 120.841195,27.424 119.919987,30.6 L108.434364,70.2051429 L115.987227,70.2051429 L119.311435,58.7417143 C119.344955,58.6268571 119.451292,58.548 119.572078,58.548 L134.747156,58.548 C134.867942,58.548 134.974857,58.6268571 135.007799,58.7417143 L138.332006,70.2051429 L138.332006,70.2051429 L138.332006,70.2051429 Z M132.954442,52.9005714 L121.365948,52.9005714 C121.280994,52.9005714 121.200662,52.8611429 121.149227,52.7931429 C121.09837,52.7268571 121.082188,52.6394286 121.105305,52.5588571 L126.899552,32.5782857 C126.933071,32.4634286 127.039409,32.3845714 127.160195,32.3845714 C127.280981,32.3845714 127.387318,32.4634286 127.42026,32.5782857 L133.215084,52.5588571 C133.238201,52.64 133.222019,52.7268571 133.170584,52.7931429 C133.119727,52.8611429 133.039396,52.9005714 132.954442,52.9005714 L132.954442,52.9005714 L132.954442,52.9005714 Z" id="Shape" fill="#333333"></path>
                <path d="M69.093474,77.6348571 L59.355487,47.9982857 L84.846474,29.6868571 L53.3370065,29.6868571 L43.5984416,0.0514285714 L43.5955519,0.0434285714 L75.1096429,0.0434285714 L84.8505195,29.684 L84.8510974,29.6834286 L84.8591883,29.6788571 C90.5158896,46.8742857 84.6898571,66.432 69.093474,77.6348571 L69.093474,77.6348571 L69.093474,77.6348571 Z M18.1010974,77.6348571 L18.0930065,77.6405714 L43.5903506,95.9565714 L69.093474,77.6354286 L43.5984416,59.3188571 L18.1010974,77.6348571 L18.1010974,77.6348571 L18.1010974,77.6348571 Z M2.34174026,29.6794286 L2.34174026,29.6794286 C-3.61316883,47.8057143 3.29935714,67.0125714 18.0958961,77.6382857 L18.0982078,77.6291429 L27.8373506,47.9942857 L2.35214286,29.6862857 L33.8540974,29.6862857 L43.5932403,0.0508571429 L43.5955519,0.0428571429 L12.0797273,0.0428571429 L2.34174026,29.6794286 L2.34174026,29.6794286 L2.34174026,29.6794286 Z" id="Shape" fill="#EB5424"></path>
            </g>
        </g>
    </g>
</svg>