<svg width="544" height="250" xmlns="http://www.w3.org/2000/svg"><g fill="none" fill-rule="evenodd"><path d="M.5 249.5h543V3A2.5 2.5 0 00541 .5H3A2.5 2.5 0 00.5 3v246.5z" stroke="#E3E5E7" fill="#F5F7F9"/><path d="M389.117 102.206c-4.668 0-8.617 2.175-11.419 6.288-2.785 4.09-4.257 9.797-4.257 16.506s1.472 12.417 4.257 16.505c2.802 4.114 6.75 6.289 11.419 6.289 4.668 0 8.617-2.175 11.419-6.289 2.784-4.088 4.256-9.796 4.256-16.505s-1.472-12.417-4.256-16.506c-2.802-4.113-6.75-6.288-11.419-6.288zm0 39.94c-2.232 0-3.995-1.249-5.392-3.818-1.687-3.103-2.616-7.837-2.616-13.328s.929-10.225 2.616-13.328c1.397-2.57 3.16-3.818 5.392-3.818 2.231 0 3.995 1.249 5.392 3.818 1.687 3.103 2.616 7.836 2.616 13.328 0 5.492-.93 10.226-2.616 13.328-1.397 2.57-3.16 3.818-5.392 3.818zm-101.175-23.333v19.606c0 5.17 4.253 9.375 9.481 9.375 4.56 0 8.005-2.237 9.274-3.2a.273.273 0 01.424.136l.766 2.476h5.65v-28.393h-7.26v21.23a.27.27 0 01-.147.239c-1.365.696-4.059 1.864-6.756 1.864-2.3 0-4.172-1.85-4.172-4.125v-19.208h-7.26zm72.695 28.392h7.26v-19.607c0-5.169-4.253-9.375-9.481-9.375-3.848 0-6.936 1.636-8.433 2.611a.273.273 0 01-.277.012.269.269 0 01-.143-.236v-17.815h-7.26v44.41h7.26v-21.231c0-.1.057-.192.147-.238 1.365-.697 4.058-1.865 6.756-1.865 1.114 0 2.162.43 2.95 1.208a4.075 4.075 0 011.22 2.917v19.21h.001zm-41.868-22.745h4.42c.149 0 .27.12.27.268v15.62c0 4.105 3.379 7.445 7.531 7.445 1.506 0 2.99-.215 4.42-.639v-5.128c-.834.073-1.792.12-2.47.12-1.225 0-2.22-.986-2.22-2.197v-15.222a.27.27 0 01.27-.268h4.42v-5.647h-4.42a.27.27 0 01-.27-.268v-9.375h-7.26v9.375a.27.27 0 01-.272.268h-4.419v5.648zm-42.437 22.745h7.552L272.4 107.6c-.921-3.176-3.898-5.394-7.24-5.394-3.34 0-6.318 2.218-7.239 5.394l-11.486 39.605h7.553l3.324-11.463a.27.27 0 01.261-.194h15.175a.27.27 0 01.26.194l3.325 11.463zm-5.378-17.304h-11.588a.271.271 0 01-.217-.108.266.266 0 01-.044-.234l5.795-19.98a.27.27 0 01.26-.194.27.27 0 01.26.193l5.795 19.98a.27.27 0 01-.26.342z" fill="#333"/><path d="M207.093 154.635l-9.738-29.637 25.491-18.311h-31.509l-9.739-29.636-.002-.008h31.514l9.74 29.641h.001l.008-.005c5.657 17.195-.17 36.753-15.766 47.956zm-50.992 0l-.008.006 25.497 18.316 25.503-18.322-25.495-18.316-25.497 18.316zm-15.76-47.956c-5.954 18.127.958 37.334 15.755 47.96l.002-.01 9.74-29.635-25.486-18.308h31.502l9.74-29.635.002-.008H150.08l-9.738 29.636z" fill="#EB5424"/></g></svg>