<svg xmlns="http://www.w3.org/2000/svg" xmlns:xlink="http://www.w3.org/1999/xlink" viewBox="0 0 510.31 63.83"><defs><linearGradient id="a" x1="59.68" y1="67.65" x2="20.35" y2="45.05" gradientUnits="userSpaceOnUse"><stop offset=".18" stop-color="#0052cc"/><stop offset="1" stop-color="#2684ff"/></linearGradient><linearGradient id="b" x1="279.76" y1="-1616.34" x2="240.42" y2="-1638.95" gradientTransform="rotate(180 141.415 -808.355)" xlink:href="#a"/></defs><g data-name="Layer 2"><path d="M134.47 60c-3.61 2.38-9.33 3.43-15.31 3.43-19 0-29.74-11.44-29.74-29.65 0-17.6 10.74-29.92 29.57-29.92 5.63 0 11.26 1.06 15.4 4v7.66c-4.14-2.64-8.71-4-15.4-4-13.55 0-21.65 9-21.65 22.26s8.36 22.09 22.09 22.09a32.46 32.46 0 0015-3.52zM140 40.48c0-13.2 7.74-22.79 20.94-22.79s20.77 9.59 20.77 22.79-7.66 23-20.77 23-20.94-9.8-20.94-23zm7.39 0c0 8.36 4.14 15.93 13.55 15.93s13.38-7.57 13.38-15.93-4-15.75-13.37-15.75-13.54 7.39-13.54 15.75zm80.54 22.09h-7.57V36c0-7.92-3.17-11.44-10.38-11.44-7 0-11.88 4.66-11.88 13.55v24.46h-7.57v-44h7.57v7.22a15.42 15.42 0 0113.9-8.1c10.12 0 15.93 7 15.93 19.1zm21.07-44h11.35v7H249v37h-7.39v-37h-7.13v-7h7.13v-4.84c0-8.18 4.58-13.73 14-13.73a18.19 18.19 0 015.1.7v7a25 25 0 00-4.75-.44c-4.66 0-7 2.73-7 6.69zm31.29 44.26c-7.22 0-11.79-3.43-11.79-11.53V.18h7.57v50.24c0 4 2.64 5.37 5.9 5.37a19.17 19.17 0 002.2-.09v6.78a16.11 16.11 0 01-3.88.35zm10.29-44.26h7.57v26.57c0 7.92 3.17 11.44 10.38 11.44 7 0 11.88-4.66 11.88-13.55V18.57H328v44h-7.57v-7.22a15.42 15.42 0 01-13.9 8.1c-10.12 0-15.93-7-15.93-19.09zm69.87 44.88c-16.46 0-23.67-9.5-23.67-23 0-13.29 7.39-22.79 20.77-22.79 13.55 0 19 9.42 19 22.79v3.43h-32.11c1.06 7.48 5.9 12.32 16.28 12.32a39 39 0 0013.38-2.38v7c-3.62 1.92-9.16 2.63-13.65 2.63zm-16.1-26h24.55c-.44-8.18-4.14-12.85-11.7-12.85-8.01-.05-12.06 5.14-12.85 12.8zm78.58 25.12h-7.57V36c0-7.92-3.17-11.44-10.38-11.44-7 0-11.88 4.66-11.88 13.55v24.46h-7.57v-44h7.57v7.22a15.42 15.42 0 0113.9-8.1c10.12 0 15.93 7 15.93 19.1zm41.63-1.15c-2.64 1.41-6.69 2-10.74 2-15.66 0-23-9.5-23-23 0-13.29 7.3-22.79 23-22.79a23.26 23.26 0 0110.47 2.11v7a22.18 22.18 0 00-9.94-2.11c-11.44 0-16.1 7.22-16.1 15.75s4.75 15.85 16.27 15.85a27.8 27.8 0 0010-1.58zm29.65 2.03c-16.46 0-23.67-9.5-23.67-23 0-13.29 7.39-22.79 20.77-22.79 13.55 0 19 9.42 19 22.79v3.43h-32.12c1.06 7.48 5.9 12.32 16.28 12.32a39 39 0 0013.38-2.38v7c-3.61 1.92-9.15 2.63-13.64 2.63zm-16.1-26h24.55c-.44-8.18-4.14-12.85-11.7-12.85-8.01-.05-12.06 5.14-12.85 12.8z" fill="#253858"/><path d="M2.23 49.53c-.65 1.06-1.38 2.29-2 3.27a2 2 0 00.67 2.72l13 8a2 2 0 002.77-.68c.52-.87 1.19-2 1.92-3.21 5.15-8.5 10.33-7.46 19.67-3l12.89 6.13a2 2 0 002.69-1l6.19-14a2 2 0 00-1-2.62c-2.72-1.28-8.13-3.83-13-6.18C28.51 30.45 13.62 31 2.23 49.53z" fill="url(#a)"/><path d="M60.52 17.76c.65-1.06 1.38-2.29 2-3.27a2 2 0 00-.67-2.72l-13-8a2 2 0 00-2.85.66c-.52.87-1.19 2-1.92 3.21-5.15 8.5-10.33 7.46-19.67 3l-12.85-6.1a2 2 0 00-2.69 1l-6.19 14a2 2 0 001 2.62c2.72 1.28 8.13 3.83 13 6.18 17.56 8.5 32.45 7.93 43.84-10.58z" fill="url(#b)"/></g></svg>