<svg xmlns="http://www.w3.org/2000/svg" viewBox="0 0 704.21 75.76"><defs><linearGradient id="a" x1="36.5" y1="34.28" x2="45.33" y2="60.42" gradientTransform="rotate(.35 251.216 -290.522)" gradientUnits="userSpaceOnUse"><stop offset="0" stop-color="#0052cc"/><stop offset="1" stop-color="#2684ff"/></linearGradient></defs><g data-name="Layer 2"><path d="M102.21 9h7.92v40.2c0 10.65-4.66 18-15.58 18a28.14 28.14 0 01-9.5-1.5V58a22.21 22.21 0 008.18 1.5c6.69 0 9-4 9-9.77zm22.35-3.09a4.94 4.94 0 015.28 5.28 5.28 5.28 0 01-10.56 0 4.94 4.94 0 015.28-5.28zm-3.87 16.9h7.57v44h-7.57zm19.01-.01h7.39v7.74c2.55-5.19 7-8.89 15.58-8.36v7.39c-9.68-1-15.58 1.94-15.58 11.26v26h-7.39zm58.43 36.08c-2.82 5.81-8.1 8.8-14.87 8.8-11.7 0-17.6-9.94-17.6-22.88 0-12.41 6.16-22.88 18.48-22.88 6.42 0 11.35 2.9 14 8.62V22.8h7.57v44h-7.57zm-12.85 1.76c6.78 0 12.85-4.31 12.85-14.08V43c0-9.77-5.54-14.08-12-14.08-8.54 0-12.94 5.63-12.94 15.84.04 10.6 4.26 15.88 12.09 15.88zm65.21 7.04c-11.18 0-16.37-2.2-20.86-4.49V55.1c5.37 2.82 13.64 4.84 21.29 4.84 8.71 0 12-3.43 12-8.54s-3.17-7.83-14.17-10.47c-13-3.17-18.83-7.66-18.83-17.16 0-9 6.86-15.66 20.33-15.66 8.36 0 13.73 2 17.69 4.22v7.92a35.53 35.53 0 00-18-4.4c-7.57 0-12.06 2.64-12.06 7.92 0 4.75 3.7 7.13 13.9 9.68 12.23 3.08 19.1 7 19.1 17.42-.06 10.03-6.05 16.81-20.39 16.81zm50.69 0c-16.46 0-23.67-9.5-23.67-23 0-13.29 7.39-22.79 20.77-22.79 13.55 0 19 9.42 19 22.79v3.43h-32.12c1.06 7.48 5.9 12.32 16.28 12.32a39 39 0 0013.38-2.38v7c-3.61 1.95-9.15 2.63-13.64 2.63zm-16.1-26h24.55c-.44-8.18-4.14-12.85-11.7-12.85-8.02-.05-12.06 5.17-12.86 12.8zm41.18-18.88h7.39v7.74c2.55-5.19 7-8.89 15.58-8.36v7.39c-9.68-1-15.58 1.94-15.58 11.26v26h-7.39zm24.55 0h7.92L373 60.38l14.15-37.58h7.92L378 66.8h-10.12zm54.65-16.89a4.94 4.94 0 015.28 5.28 5.28 5.28 0 01-10.56 0 4.94 4.94 0 015.28-5.28zm-3.87 16.9h7.57v44h-7.57zm50.06 42.85c-2.64 1.41-6.69 2-10.74 2-15.66 0-23-9.5-23-23 0-13.29 7.3-22.79 23-22.79A23.26 23.26 0 01451.39 24v7a22.18 22.18 0 00-9.94-2c-11.44 0-16.1 7.22-16.1 15.75s4.75 15.75 16.28 15.75a27.8 27.8 0 0010-1.58zm29.66 2.02c-16.46 0-23.67-9.5-23.67-23 0-13.29 7.39-22.79 20.77-22.79 13.55 0 19 9.42 19 22.79v3.43h-32.12c1.06 7.48 5.9 12.32 16.28 12.32a39 39 0 0013.38-2.38v7c-3.61 1.95-9.15 2.63-13.64 2.63zm-16.1-26h24.55c-.44-8.18-4.14-12.85-11.7-12.85C470 28.78 466 34 465.21 41.63zM544.76 9c18.74 0 27.81 11.7 27.81 29s-9.15 28.69-27.81 28.69h-13.38v.09h-7.92V9zm-13.38 7.57v42.57h13.46q19.8 0 19.8-20.86c0-14.08-6.25-21.74-20.24-21.74zm71.45 51.11c-16.46 0-23.67-9.5-23.67-23 0-13.29 7.39-22.79 20.77-22.79 13.55 0 19 9.42 19 22.79v3.43h-32.11c1.06 7.48 5.9 12.32 16.28 12.32a39 39 0 0013.38-2.38v7c-3.61 1.95-9.16 2.63-13.65 2.63zm-16.1-26h24.55c-.44-8.18-4.14-12.85-11.7-12.85-8.01-.05-12.06 5.17-12.85 12.8zm55 26a33.9 33.9 0 01-15.31-3.26v-8a34.39 34.39 0 0015.66 4.31c5.81 0 8.8-2.38 8.8-5.81s-2.55-5.28-10.91-7.3c-9.77-2.38-13.9-6.16-13.9-13.38 0-7.66 5.9-12.32 15.93-12.32a31.24 31.24 0 0114.17 3.17v7.83c-5.28-2.64-9.59-4-14.26-4-5.54 0-8.54 1.94-8.54 5.37 0 3.08 2.11 5 10.21 7 9.77 2.38 14.7 6 14.7 13.64-.01 7.21-4.76 12.75-16.55 12.75zM667 66.8V4.41h7.57v39l18.9-20.61h9.86l-20.68 21.65 21.56 22.35h-10.3l-19.36-20.59V66.8z" fill="#253858"/><path d="M35.34 29.92l20.61.08a3.21 3.21 0 012.55 5.14L28.08 75.76a21.61 21.61 0 01-4.38-30.25z" fill="url(#a)"/><path d="M23.69 45.51L3.2 45.38a3.21 3.21 0 01-2.55-5.14L30.77 0a21.61 21.61 0 014.38 30.25z" fill="#2684ff"/></g></svg>