<svg xmlns="http://www.w3.org/2000/svg" viewBox="0 0 397.12 66"><defs><linearGradient id="a" x1="37.13" y1="31.71" x2="52.42" y2="46.24" gradientUnits="userSpaceOnUse"><stop offset=".17" stop-color="#0052cc"/><stop offset="1" stop-color="#2684ff"/></linearGradient></defs><g data-name="Layer 2"><path d="M103 4.11h8v40.21c0 10.65-4.66 18-15.58 18a28.14 28.14 0 01-9.5-1.5v-7.7a22.21 22.21 0 008.18 1.5c6.69 0 9-4 9-9.77zM125.39 1a4.94 4.94 0 015.28 5.28 5.28 5.28 0 01-10.56 0A4.94 4.94 0 01125.39 1zm-3.87 16.9h7.57v44h-7.57zm19 .02h7.39v7.74c2.55-5.19 7-8.89 15.58-8.36v7.4c-9.68-1-15.58 1.94-15.58 11.26v26h-7.39zM199 54c-2.82 5.81-8.1 8.8-14.87 8.8-11.7 0-17.6-9.94-17.6-22.88C166.48 27.51 172.64 17 185 17c6.42 0 11.35 2.9 14 8.62v-7.7h7.57v44H199zm-12.85 1.76c6.78 0 12.85-4.31 12.85-14.08v-3.52c0-9.77-5.54-14.08-12-14.08-8.54 0-12.94 5.63-12.94 15.84-.06 10.56 4.21 15.84 12.05 15.84zm89.18 3.61c-3.6 2.37-9.33 3.43-15.33 3.43-19 0-29.74-11.44-29.74-29.66 0-17.6 10.74-29.92 29.57-29.92 5.63 0 11.26 1.06 15.4 4v7.66c-4.14-2.64-8.71-4-15.4-4-13.55 0-21.65 9-21.65 22.26s8.36 22.09 22.09 22.09a32.46 32.46 0 0015-3.52zm5.55-19.54c0-13.2 7.74-22.79 20.94-22.79s20.77 9.59 20.77 22.79-7.66 23-20.77 23-20.94-9.83-20.94-23zm7.39 0c0 8.36 4.14 15.93 13.55 15.93s13.38-7.57 13.38-15.93-4-15.75-13.37-15.75-13.56 7.39-13.56 15.75zm43.12-21.91h7.39v7.74c2.55-5.19 7-8.89 15.58-8.36v7.4c-9.68-1-15.58 1.94-15.58 11.26v26h-7.39zM381 62.8c-16.46 0-23.67-9.5-23.67-23 0-13.29 7.39-22.79 20.77-22.79 13.55 0 19 9.42 19 22.79v3.43H365c1.06 7.48 5.9 12.32 16.28 12.32a39 39 0 0013.38-2.38v7c-3.61 1.93-9.15 2.63-13.66 2.63zm-16.1-26h24.55c-.44-8.18-4.14-12.85-11.7-12.85-7.99-.05-12.04 5.15-12.83 12.8z" fill="#253858"/><path d="M33.43 44.48A21.52 21.52 0 0054.95 66V23.12L33.43 37.86z" fill="url(#a)"/><path d="M54.95 23.12V3.21a3.2 3.2 0 00-5-2.64L0 34.67a21.52 21.52 0 0029.89 5.69z" fill="#2684ff"/></g></svg>