<svg xmlns="http://www.w3.org/2000/svg" width="943.091" height="211.654"><path d="M113.504 181.716c.312-1.97.393-144.417.095-147.525-24.204 5.765-48.372 11.525-72.64 17.306V151.91a91593.888 91593.888 0 01-37.387 14.604c-.08-.045-.148-.07-.213-.116-.055-.04-.125-.1-.13-.155-.04-.376-.089-.752-.089-1.133-.005-40.574-.005-81.152-.005-121.626.557-.686 1.277-.772 1.902-1.002 35.57-13.32 71.15-26.628 106.723-39.947 1.232-.462 2.35-.688 3.716-.286 19.519 5.665 39.057 11.264 58.59 16.885.283.086.567.186.968.315v171.014c-5.608 1.56-11.167 3.119-16.73 4.653-14.164 3.905-28.336 7.781-42.49 11.716-1.386.386-2.598.357-3.96-.145-34.987-12.93-69.99-25.819-104.983-38.714-.69-.255-1.367-.541-1.948-1.157 36.195 4.968 72.39 9.93 108.58 14.9zm264.658-91.361h-14.875V78.434h14.263c.84-.767.602-1.494.602-2.141.024-4.251.01-8.508.015-12.764.005-5.084.85-10.002 3.243-14.534 4.883-9.23 12.589-14.188 23.05-14.785 3.434-.195 6.861-.055 10.21.878.576.16 1.137.386 1.773.607v12.338c-.676.336-1.142-.206-1.664-.412-3.79-1.498-7.675-1.92-11.664-1.068-3.791.817-6.632 2.918-8.451 6.377a18.419 18.419 0 00-2.036 6.96c-.542 6.056-.164 12.126-.253 18.333h34.064c.482-.616.297-1.247.297-1.83.02-4.561-.05-9.124.026-13.682.133-8.066 2.647-15.2 8.514-20.971 4.59-4.506 10.149-6.923 16.512-7.465 3.652-.31 7.318-.225 10.91.672.804.196 1.654.296 2.35.928v12.408c-2.315-.882-4.496-1.71-6.846-2-2.385-.291-4.729-.18-7.034.39-3.865.963-6.617 3.325-8.272 6.93-1.152 2.517-1.793 5.194-1.858 7.94-.114 5.315-.07 10.639-.084 15.959 0 .21.105.42.22.852h20.316v11.941h-20.54v75.954h-14.154c-.104-3.548-.034-7.159-.05-10.764-.01-3.57 0-7.144 0-10.713v-54.34H392.39v75.812h-14.173c-.114-2.691-.035-5.465-.05-8.232-.014-2.807-.004-5.62-.004-8.432V90.355zm-141.13 15.888c.135-11.951 1.952-23.272 7.1-33.885 7.953-16.399 21.048-26.24 38.818-29.93 10.61-2.206 21.247-2.151 31.664 1.073 17.02 5.268 28.43 16.569 34.794 33.023 4.109 10.609 5.146 21.673 4.432 32.943-.477 7.46-1.739 14.78-4.337 21.824-7.536 20.46-22.038 32.783-43.627 36.342-12.007 1.98-23.89 1.013-35.192-3.925-14.357-6.272-23.775-17.121-29.221-31.605-3.164-8.428-4.35-17.191-4.43-25.86zm101.805-2.03c-.09-1.72-.149-4.227-.352-6.723-.617-7.47-2.157-14.725-5.515-21.487-4.466-8.995-11.148-15.688-20.701-19.262-4.679-1.75-9.549-2.517-14.54-2.622-16.697-.35-29.445 6.467-37.97 20.84-4.217 7.11-6.418 14.925-7.122 23.102-.91 10.478-.026 20.787 3.928 30.673 4.273 10.694 11.317 18.826 22.067 23.433 6.802 2.913 13.935 3.625 21.273 2.983 16.015-1.399 27.356-9.37 33.999-23.925 3.795-8.316 4.803-17.2 4.933-27.012zm510.76-59.665v12.835c-.586.4-1.023-.01-1.485-.221-5.032-2.312-10.304-3.68-15.842-4.061-9.777-.667-18.177 2.261-24.938 9.455-4.829 5.139-8.034 11.23-10.215 17.873-2.731 8.303-3.646 16.885-3.74 25.709 1.029-.19 1.093-1.073 1.426-1.654 3.159-5.474 7.357-9.852 13.204-12.504 3.363-1.524 6.9-2.377 10.581-2.617 5.212-.341 10.369-.05 15.366 1.6 10.254 3.394 17.139 10.367 20.69 20.38 3.925 11.069 3.707 22.273-.625 33.208-6.23 15.733-20.363 24.567-37.62 23.87-11.457-.462-20.434-5.42-27.066-14.67-4.555-6.352-7.188-13.516-8.738-21.106-2.146-10.509-2.31-21.113-1.43-31.761.824-9.977 2.92-19.658 6.895-28.892 3.69-8.579 8.797-16.13 16.254-21.944 7.65-5.966 16.368-8.89 26.06-9.014 5.59-.065 11.12.34 16.533 1.81 1.54.42 3.061.912 4.69 1.704zm-55.326 83.724c.08 6.453 2.306 14.073 7.944 20.516 7.257 8.298 17.963 9.315 26.245 5.71 6.796-2.958 10.864-8.448 12.886-15.396 2.15-7.406 1.952-14.875-.437-22.2-2.15-6.603-6.25-11.627-12.931-14.123-5.048-1.88-10.274-2.12-15.5-.792-10.918 2.773-18.267 12.649-18.207 26.285zm79.102-23.773c1.386-20.264 2.777-40.694 4.187-61.264h57.09v12.288c-.01.014-.044.08-.099.124a.504.504 0 01-.194.116c-.144.045-.293.095-.442.095h-43.984c-.93 11.987-1.73 23.9-2.484 35.772.954.49 1.713.23 2.448.21 5.937-.17 11.878-.572 17.805.271 7.606 1.087 14.64 3.52 20.686 8.398 6.2 4.998 9.886 11.515 11.271 19.255 1.407 7.806 1.253 15.617-1.444 23.168-4.02 11.26-12.048 18.565-23.17 22.656-6.985 2.571-14.258 3.038-21.62 2.833-5.504-.152-10.945-.707-16.23-2.347a31.033 31.033 0 01-5.051-2.09c-.636-.331-1.134-.678-1.129-1.53.03-4.542.016-9.09.016-13.757.814-.06 1.256.397 1.733.678 6.234 3.704 12.892 6.176 20.159 6.838 6.165.566 12.216.065 17.9-2.538 8.811-4.03 13.839-10.868 14.897-20.549.413-3.745.26-7.45-.725-11.075-2.007-7.42-6.82-12.398-13.85-15.321-4.198-1.745-8.614-2.572-13.13-2.728-7.7-.255-15.395-.09-23.065.763-.427.05-.89.23-1.575-.266zm-216.888 21.443h-62.097c-.268 3.123.274 6.02.86 8.899.879 4.29 2.499 8.282 5.217 11.77 4.295 5.52 10.07 8.463 16.919 9.381 11.242 1.504 21.455-1.199 30.735-7.616.563-.385 1.139-.742 1.715-1.102.05-.035.138-.006.229-.006.422.613.213 1.315.222 1.976.02 2.887-.089 5.78.045 8.658.085 1.67-.54 2.612-1.932 3.46a44.635 44.635 0 01-14.586 5.734c-7.839 1.59-15.748 2.026-23.621.523-13.13-2.517-21.878-10.388-26.886-22.586-1.947-4.748-2.99-9.726-3.443-14.81-.774-8.694-.397-17.302 2.549-25.644 3.79-10.729 10.155-19.371 20.597-24.476 10.328-5.049 21.039-5.339 31.729-1.388 9.304 3.44 15.126 10.448 18.594 19.537 1.997 5.234 2.88 10.704 3.12 16.26.164 3.698.034 7.408.034 11.43zm-14.53-12.109c-.054-6.351-1.158-12.227-4.76-17.426-1.997-2.878-4.57-5.169-7.863-6.387-7.914-2.928-15.618-2.566-22.659 2.366-7.362 5.164-10.81 12.674-12.235 21.447h47.517zm62.901-5.493V96.897c.914-.426 1.759-.236 2.579-.24 4.725-.046 9.453.11 14.167-.401 3.96-.432 7.835-1.199 11.487-2.828 7.367-3.29 11.25-9.024 11.823-17.016.223-3.118.149-6.236-.612-9.284-1.877-7.53-6.909-11.772-14.351-13.296-10.596-2.166-20.423-.135-29.49 5.7-.51.327-1.012.677-1.514 1.018-.433.296-.87.587-1.655 1.123-.019-2.511-.04-4.728-.05-6.943-.01-2.196 0-4.397 0-6.643 4.183-2.577 8.624-4.307 13.325-5.39 8.803-2.026 17.664-2.537 26.483-.256 8.813 2.282 15.748 7.155 19.876 15.477 2.726 5.505 3.015 11.396 2.4 17.366-.36 3.495-1.238 6.87-2.753 10.062-2.965 6.252-7.844 10.563-13.999 13.522-1.848.883-3.805 1.538-5.718 2.296-.471.186-1.073.13-1.411.842 2.916.507 5.798.998 8.545 2.01 9.413 3.465 16.577 9.471 18.966 19.408 3.165 13.145.035 24.872-10.163 34.237-5.942 5.45-13.096 8.548-21.01 9.846-10.049 1.65-20.035 1.348-29.88-1.464-2.867-.818-5.579-2.005-8.177-3.474-.78-.442-1.297-.908-1.287-1.925.055-4.403.04-8.809.06-13.221 0-.12.139-.24.298-.492.67.452 1.341.908 2.012 1.365 11.356 7.66 23.73 9.876 37.054 6.743 3.597-.847 6.841-2.532 9.727-4.863 4.759-3.856 7.298-8.88 7.81-14.915.273-3.19.104-6.362-.736-9.491-1.39-5.179-4.396-9.11-8.956-11.896-4.034-2.462-8.49-3.681-13.11-4.437-6.28-1.028-12.609-.844-18.932-.868-.895 0-1.819.19-2.808-.23zM569.579 80.674v14.049c-.963 0-1.544-.678-2.23-1.083-6.379-3.816-13.224-5.72-20.701-5.315-11.003.602-18.933 6.012-24.312 15.392-2.414 4.217-3.711 8.819-4.217 13.616-.696 6.552-.438 13.056 1.619 19.382 3.92 12.047 14.088 19.463 26.8 19.693 7.562.141 14.427-1.936 20.721-6.046.626-.406 1.157-.982 2.106-1.163v13.034c-.282.468-.943.718-1.544 1.013-13.74 6.643-27.715 7.35-41.695 1.008-10.034-4.552-16.627-12.528-20.065-22.84-4.738-14.234-4.049-28.407 2.653-41.864 6.82-13.687 18.326-21.146 33.517-22.976 7.98-.958 15.823-.426 23.433 2.322 1.287.465 2.57.947 3.915 1.778zm-81.064 85.72h-13.562c-.511-1.718-.71-83.137-.248-87.695 1.634-.405 10.646-.52 13.805-.174.313 1.764.354 85.428.005 87.87zM472.6 46.644c.098-5.179 4.237-9.065 9.522-8.94 5.28.127 9.24 4.212 9.096 9.381-.144 5.114-4.376 9.07-9.588 8.964-5.306-.11-9.131-4.092-9.03-9.405z" fill="#dc3e15"/></svg>