<?xml version="1.0" standalone="no"?>
<!DOCTYPE svg PUBLIC "-//W3C//DTD SVG 20010904//EN"
 "http://www.w3.org/TR/2001/REC-SVG-20010904/DTD/svg10.dtd">
<svg version="1.0" xmlns="http://www.w3.org/2000/svg"
 width="2000.000000pt" height="2000.000000pt" viewBox="0 0 2000.000000 2000.000000"
 preserveAspectRatio="xMidYMid meet">
<metadata>
Created by potrace 1.11, written by Peter Selinger 2001-2013
</metadata>
<g transform="translate(0.000000,2000.000000) scale(0.100000,-0.100000)"
fill="#000000" stroke="none">
<path d="M6486 17943 c-85 -258 -682 -2045 -1325 -3973 -1290 -3864 -1195
-3579 -1251 -3745 -22 -66 -42 -127 -45 -135 -2 -8 -220 -663 -485 -1455 -614
-1840 -614 -1838 -616 -1850 -2 -9 -79 -238 -205 -610 -22 -66 -58 -174 -79
-240 -37 -115 -77 -234 -156 -465 -19 -58 -37 -112 -39 -120 -2 -8 -285 -856
-629 -1885 -343 -1028 -623 -1871 -622 -1873 2 -1 4035 -1 8963 0 l8961 3 -74
225 c-41 124 -78 234 -83 245 -5 11 -201 598 -435 1305 -235 707 -433 1301
-441 1320 -7 19 -109 323 -225 675 -116 352 -215 649 -220 660 -5 11 -41 119
-80 240 -39 121 -74 227 -77 235 -3 8 -760 2276 -1683 5040 -923 2764 -1680
5032 -1683 5040 -3 8 -141 423 -307 923 l-302 907 -3353 0 -3353 0 -156 -467z
m3712 -4718 c50 -154 126 -388 168 -520 43 -132 79 -247 80 -255 2 -8 7 -23
12 -35 5 -11 21 -56 35 -100 33 -108 174 -546 197 -615 10 -30 55 -170 100
-310 45 -140 90 -280 100 -310 11 -30 58 -176 105 -325 48 -148 109 -340 137
-425 28 -85 70 -218 95 -295 25 -77 56 -171 68 -210 13 -38 64 -197 114 -352
l91 -281 1873 3 c1029 2 2128 4 2441 5 312 1 570 0 572 -2 1 -2 -97 -76 -218
-163 -122 -88 -290 -209 -373 -270 -84 -60 -240 -173 -346 -250 -107 -76 -199
-144 -206 -150 -6 -5 -46 -35 -89 -65 -96 -68 -715 -516 -729 -527 -5 -5 -32
-24 -60 -43 -27 -19 -99 -71 -160 -115 -106 -79 -330 -241 -406 -294 -20 -14
-139 -100 -264 -191 -125 -91 -271 -196 -324 -235 -54 -38 -159 -115 -235
-170 -76 -55 -177 -128 -225 -162 -47 -34 -90 -65 -96 -70 -5 -5 -59 -44 -118
-87 -82 -59 -107 -82 -102 -95 4 -9 26 -77 50 -151 67 -208 212 -652 255 -780
21 -63 86 -263 145 -445 59 -181 110 -339 115 -350 5 -11 54 -162 110 -335 56
-173 119 -367 140 -430 21 -63 106 -324 190 -580 83 -256 158 -483 165 -505 8
-22 78 -236 156 -475 78 -239 152 -466 164 -505 24 -73 25 -84 3 -66 -37 32
-190 141 -198 141 -4 0 -10 4 -12 8 -2 5 -95 75 -208 157 -113 82 -217 158
-232 170 -14 11 -55 41 -90 66 -35 25 -139 102 -233 170 -93 68 -180 131 -192
139 -12 8 -169 123 -349 255 -179 132 -355 260 -389 285 -124 89 -388 281
-590 430 -71 52 -139 102 -151 110 -12 8 -175 126 -361 262 -186 136 -470 344
-632 462 -170 124 -299 212 -306 208 -6 -4 -116 -83 -244 -177 -128 -93 -252
-183 -275 -200 -24 -16 -116 -84 -205 -150 -89 -66 -172 -127 -184 -135 -13
-8 -96 -69 -186 -135 -89 -66 -172 -127 -184 -135 -25 -17 -296 -215 -312
-227 -5 -5 -50 -38 -100 -73 -49 -35 -108 -78 -131 -95 -22 -16 -53 -39 -68
-50 -15 -11 -56 -41 -89 -66 -34 -25 -219 -160 -412 -300 -192 -139 -354 -257
-360 -262 -27 -21 -163 -120 -380 -277 -132 -96 -244 -178 -250 -183 -10 -8
-192 -141 -359 -262 -53 -38 -120 -87 -148 -108 -28 -21 -52 -36 -54 -34 -2 2
9 41 25 88 16 46 88 266 161 489 72 223 153 470 180 550 26 80 91 280 145 445
54 165 121 372 150 460 29 88 113 342 185 565 73 223 154 470 180 550 26 80
105 321 175 535 70 215 170 518 221 675 l94 285 -23 20 c-13 11 -118 88 -232
170 -115 83 -234 168 -264 191 -31 22 -195 141 -366 265 -281 202 -541 391
-604 437 -13 9 -69 50 -125 89 -56 40 -105 76 -111 81 -5 4 -215 156 -465 337
-250 180 -484 350 -520 376 -36 27 -78 58 -95 69 -35 25 -249 180 -560 405
-120 88 -229 167 -241 175 -78 52 -353 255 -350 258 2 2 249 3 548 2 298 0
1397 -3 2440 -4 l1898 -4 90 282 c50 154 95 292 100 306 5 14 46 140 91 280
45 140 112 350 150 465 37 116 106 332 154 480 48 149 100 308 115 355 15 47
65 200 110 340 45 140 88 273 95 295 8 22 55 168 105 325 50 157 120 373 155
480 35 107 102 317 150 465 48 149 102 315 119 370 18 55 41 127 51 160 l18
60 57 -175 c32 -96 98 -301 148 -455z"/>
</g>
</svg>
